<mxfile host="app.diagrams.net" agent="Mozilla/5.0 (Windows NT 10.0; Win64; x64) AppleWebKit/537.36 (KHTML, like Gecko) Chrome/127.0.0.0 Safari/537.36" version="24.7.7">
  <diagram name="Page-1" id="9f46799a-70d6-7492-0946-bef42562c5a5">
    <mxGraphModel dx="5797" dy="3340" grid="1" gridSize="10" guides="1" tooltips="1" connect="1" arrows="1" fold="1" page="1" pageScale="1" pageWidth="1700" pageHeight="1100" background="none" math="0" shadow="0">
      <root>
        <mxCell id="0" />
        <mxCell id="1" parent="0" />
        <mxCell id="jU_3QIgpvsVhEryn2_ra-132" style="edgeStyle=orthogonalEdgeStyle;rounded=0;orthogonalLoop=1;jettySize=auto;html=1;entryX=0.5;entryY=0;entryDx=0;entryDy=0;" edge="1" parent="1" source="78961159f06e98e8-30" target="jU_3QIgpvsVhEryn2_ra-126">
          <mxGeometry relative="1" as="geometry" />
        </mxCell>
        <mxCell id="78961159f06e98e8-30" value="USUARIO" style="swimlane;html=1;fontStyle=1;align=center;verticalAlign=top;childLayout=stackLayout;horizontal=1;startSize=26;horizontalStack=0;resizeParent=1;resizeLast=0;collapsible=1;marginBottom=0;swimlaneFillColor=#ffffff;rounded=0;shadow=0;comic=0;labelBackgroundColor=none;strokeWidth=1;fillColor=none;fontFamily=Verdana;fontSize=12" parent="1" vertex="1">
          <mxGeometry x="800" y="-1000" width="210" height="360" as="geometry">
            <mxRectangle x="430" y="83" width="100" height="30" as="alternateBounds" />
          </mxGeometry>
        </mxCell>
        <mxCell id="78961159f06e98e8-31" value="Email:varchar PK&lt;span style=&quot;white-space: pre;&quot;&gt;&#x9;&lt;/span&gt;&lt;span style=&quot;white-space: pre;&quot;&gt;&#x9;&lt;/span&gt;&lt;span style=&quot;white-space: pre;&quot;&gt;&#x9;&lt;/span&gt;&lt;span style=&quot;white-space: pre;&quot;&gt;&#x9;&lt;/span&gt;" style="text;html=1;strokeColor=none;fillColor=none;align=left;verticalAlign=top;spacingLeft=4;spacingRight=4;whiteSpace=wrap;overflow=hidden;rotatable=0;points=[[0,0.5],[1,0.5]];portConstraint=eastwest;" parent="78961159f06e98e8-30" vertex="1">
          <mxGeometry y="26" width="210" height="26" as="geometry" />
        </mxCell>
        <mxCell id="78961159f06e98e8-32" value="Rol_user: varchar" style="text;html=1;strokeColor=none;fillColor=none;align=left;verticalAlign=top;spacingLeft=4;spacingRight=4;whiteSpace=wrap;overflow=hidden;rotatable=0;points=[[0,0.5],[1,0.5]];portConstraint=eastwest;" parent="78961159f06e98e8-30" vertex="1">
          <mxGeometry y="52" width="210" height="26" as="geometry" />
        </mxCell>
        <mxCell id="78961159f06e98e8-33" value="Name_user: varchar" style="text;html=1;strokeColor=none;fillColor=none;align=left;verticalAlign=top;spacingLeft=4;spacingRight=4;whiteSpace=wrap;overflow=hidden;rotatable=0;points=[[0,0.5],[1,0.5]];portConstraint=eastwest;" parent="78961159f06e98e8-30" vertex="1">
          <mxGeometry y="78" width="210" height="26" as="geometry" />
        </mxCell>
        <mxCell id="78961159f06e98e8-34" value="Surname_user: varchar&lt;span style=&quot;white-space: pre;&quot;&gt;&#x9;&lt;/span&gt;" style="text;html=1;strokeColor=none;fillColor=none;align=left;verticalAlign=top;spacingLeft=4;spacingRight=4;whiteSpace=wrap;overflow=hidden;rotatable=0;points=[[0,0.5],[1,0.5]];portConstraint=eastwest;" parent="78961159f06e98e8-30" vertex="1">
          <mxGeometry y="104" width="210" height="26" as="geometry" />
        </mxCell>
        <mxCell id="78961159f06e98e8-36" value="Passwd:varchar" style="text;html=1;strokeColor=none;fillColor=none;align=left;verticalAlign=top;spacingLeft=4;spacingRight=4;whiteSpace=wrap;overflow=hidden;rotatable=0;points=[[0,0.5],[1,0.5]];portConstraint=eastwest;" parent="78961159f06e98e8-30" vertex="1">
          <mxGeometry y="130" width="210" height="26" as="geometry" />
        </mxCell>
        <mxCell id="78961159f06e98e8-37" value="Dni:varchar" style="text;html=1;strokeColor=none;fillColor=none;align=left;verticalAlign=top;spacingLeft=4;spacingRight=4;whiteSpace=wrap;overflow=hidden;rotatable=0;points=[[0,0.5],[1,0.5]];portConstraint=eastwest;" parent="78961159f06e98e8-30" vertex="1">
          <mxGeometry y="156" width="210" height="24" as="geometry" />
        </mxCell>
        <mxCell id="78961159f06e98e8-39" value="+ method(type): type" style="text;html=1;strokeColor=none;fillColor=none;align=left;verticalAlign=top;spacingLeft=4;spacingRight=4;whiteSpace=wrap;overflow=hidden;rotatable=0;points=[[0,0.5],[1,0.5]];portConstraint=eastwest;" parent="78961159f06e98e8-30" vertex="1">
          <mxGeometry y="180" width="210" height="4" as="geometry" />
        </mxCell>
        <mxCell id="78961159f06e98e8-40" value="Birthday:date" style="text;html=1;strokeColor=none;fillColor=none;align=left;verticalAlign=top;spacingLeft=4;spacingRight=4;whiteSpace=wrap;overflow=hidden;rotatable=0;points=[[0,0.5],[1,0.5]];portConstraint=eastwest;" parent="78961159f06e98e8-30" vertex="1">
          <mxGeometry y="184" width="210" height="26" as="geometry" />
        </mxCell>
        <mxCell id="78961159f06e98e8-42" value="Privacy_policy:boolean" style="text;html=1;strokeColor=none;fillColor=none;align=left;verticalAlign=top;spacingLeft=4;spacingRight=4;whiteSpace=wrap;overflow=hidden;rotatable=0;points=[[0,0.5],[1,0.5]];portConstraint=eastwest;" parent="78961159f06e98e8-30" vertex="1">
          <mxGeometry y="210" width="210" height="26" as="geometry" />
        </mxCell>
        <mxCell id="nlcIiToaz_BaQZgEdk1q-94" value="" style="line;html=1;strokeWidth=1;fillColor=none;align=left;verticalAlign=middle;spacingTop=-1;spacingLeft=3;spacingRight=3;rotatable=0;labelPosition=right;points=[];portConstraint=eastwest;" parent="78961159f06e98e8-30" vertex="1">
          <mxGeometry y="236" width="210" height="8" as="geometry" />
        </mxCell>
        <mxCell id="nlcIiToaz_BaQZgEdk1q-95" value="PK_USER: Email" style="text;html=1;strokeColor=none;fillColor=none;align=left;verticalAlign=top;spacingLeft=4;spacingRight=4;whiteSpace=wrap;overflow=hidden;rotatable=0;points=[[0,0.5],[1,0.5]];portConstraint=eastwest;" parent="78961159f06e98e8-30" vertex="1">
          <mxGeometry y="244" width="210" height="26" as="geometry" />
        </mxCell>
        <mxCell id="nlcIiToaz_BaQZgEdk1q-97" value="FK_ROL Rol_user REFERENCES Rol_USER" style="text;html=1;strokeColor=none;fillColor=none;align=left;verticalAlign=top;spacingLeft=4;spacingRight=4;whiteSpace=wrap;overflow=hidden;rotatable=0;points=[[0,0.5],[1,0.5]];portConstraint=eastwest;" parent="78961159f06e98e8-30" vertex="1">
          <mxGeometry y="270" width="210" height="64" as="geometry" />
        </mxCell>
        <mxCell id="nlcIiToaz_BaQZgEdk1q-168" style="edgeStyle=orthogonalEdgeStyle;rounded=0;orthogonalLoop=1;jettySize=auto;html=1;entryX=0;entryY=0.5;entryDx=0;entryDy=0;" parent="1" source="78961159f06e98e8-56" target="nlcIiToaz_BaQZgEdk1q-160" edge="1">
          <mxGeometry relative="1" as="geometry" />
        </mxCell>
        <mxCell id="78961159f06e98e8-56" value="PRODUCT" style="swimlane;html=1;fontStyle=1;align=center;verticalAlign=top;childLayout=stackLayout;horizontal=1;startSize=26;horizontalStack=0;resizeParent=1;resizeLast=0;collapsible=1;marginBottom=0;swimlaneFillColor=#ffffff;rounded=0;shadow=0;comic=0;labelBackgroundColor=none;strokeWidth=1;fillColor=none;fontFamily=Verdana;fontSize=12" parent="1" vertex="1">
          <mxGeometry x="49.86" y="-150" width="160" height="170" as="geometry" />
        </mxCell>
        <mxCell id="nlcIiToaz_BaQZgEdk1q-104" value="Id_producto: char PK" style="text;html=1;strokeColor=none;fillColor=none;align=left;verticalAlign=top;spacingLeft=4;spacingRight=4;whiteSpace=wrap;overflow=hidden;rotatable=0;points=[[0,0.5],[1,0.5]];portConstraint=eastwest;" parent="78961159f06e98e8-56" vertex="1">
          <mxGeometry y="26" width="160" height="26" as="geometry" />
        </mxCell>
        <mxCell id="nlcIiToaz_BaQZgEdk1q-106" value="Producto: varchar" style="text;html=1;strokeColor=none;fillColor=none;align=left;verticalAlign=top;spacingLeft=4;spacingRight=4;whiteSpace=wrap;overflow=hidden;rotatable=0;points=[[0,0.5],[1,0.5]];portConstraint=eastwest;" parent="78961159f06e98e8-56" vertex="1">
          <mxGeometry y="52" width="160" height="26" as="geometry" />
        </mxCell>
        <mxCell id="nlcIiToaz_BaQZgEdk1q-107" value="Fecha creacion Date" style="text;html=1;strokeColor=none;fillColor=none;align=left;verticalAlign=top;spacingLeft=4;spacingRight=4;whiteSpace=wrap;overflow=hidden;rotatable=0;points=[[0,0.5],[1,0.5]];portConstraint=eastwest;" parent="78961159f06e98e8-56" vertex="1">
          <mxGeometry y="78" width="160" height="26" as="geometry" />
        </mxCell>
        <mxCell id="nlcIiToaz_BaQZgEdk1q-109" value="" style="line;html=1;strokeWidth=1;fillColor=none;align=left;verticalAlign=middle;spacingTop=-1;spacingLeft=3;spacingRight=3;rotatable=0;labelPosition=right;points=[];portConstraint=eastwest;" parent="78961159f06e98e8-56" vertex="1">
          <mxGeometry y="104" width="160" height="8" as="geometry" />
        </mxCell>
        <mxCell id="nlcIiToaz_BaQZgEdk1q-111" value="PK_ID_Product PRIMARY KEY (Id_Producto)" style="text;html=1;strokeColor=none;fillColor=none;align=left;verticalAlign=top;spacingLeft=4;spacingRight=4;whiteSpace=wrap;overflow=hidden;rotatable=0;points=[[0,0.5],[1,0.5]];portConstraint=eastwest;" parent="78961159f06e98e8-56" vertex="1">
          <mxGeometry y="112" width="160" height="38" as="geometry" />
        </mxCell>
        <mxCell id="nlcIiToaz_BaQZgEdk1q-112" value="SUBPRODUCT" style="swimlane;html=1;fontStyle=1;align=center;verticalAlign=top;childLayout=stackLayout;horizontal=1;startSize=26;horizontalStack=0;resizeParent=1;resizeLast=0;collapsible=1;marginBottom=0;swimlaneFillColor=#ffffff;rounded=0;shadow=0;comic=0;labelBackgroundColor=none;strokeWidth=1;fillColor=none;fontFamily=Verdana;fontSize=12" parent="1" vertex="1">
          <mxGeometry x="49.86" y="240" width="200" height="230" as="geometry">
            <mxRectangle x="430" y="83" width="100" height="30" as="alternateBounds" />
          </mxGeometry>
        </mxCell>
        <mxCell id="nlcIiToaz_BaQZgEdk1q-113" value="Id_subproducto:int PK" style="text;html=1;strokeColor=none;fillColor=none;align=left;verticalAlign=top;spacingLeft=4;spacingRight=4;whiteSpace=wrap;overflow=hidden;rotatable=0;points=[[0,0.5],[1,0.5]];portConstraint=eastwest;" parent="nlcIiToaz_BaQZgEdk1q-112" vertex="1">
          <mxGeometry y="26" width="200" height="26" as="geometry" />
        </mxCell>
        <mxCell id="nlcIiToaz_BaQZgEdk1q-114" value="Id_producto:varchar" style="text;html=1;strokeColor=none;fillColor=none;align=left;verticalAlign=top;spacingLeft=4;spacingRight=4;whiteSpace=wrap;overflow=hidden;rotatable=0;points=[[0,0.5],[1,0.5]];portConstraint=eastwest;" parent="nlcIiToaz_BaQZgEdk1q-112" vertex="1">
          <mxGeometry y="52" width="200" height="26" as="geometry" />
        </mxCell>
        <mxCell id="nlcIiToaz_BaQZgEdk1q-115" value="Subproducto:varchar" style="text;html=1;strokeColor=none;fillColor=none;align=left;verticalAlign=top;spacingLeft=4;spacingRight=4;whiteSpace=wrap;overflow=hidden;rotatable=0;points=[[0,0.5],[1,0.5]];portConstraint=eastwest;" parent="nlcIiToaz_BaQZgEdk1q-112" vertex="1">
          <mxGeometry y="78" width="200" height="26" as="geometry" />
        </mxCell>
        <mxCell id="nlcIiToaz_BaQZgEdk1q-116" value="Fecha_creacion: date" style="text;html=1;strokeColor=none;fillColor=none;align=left;verticalAlign=top;spacingLeft=4;spacingRight=4;whiteSpace=wrap;overflow=hidden;rotatable=0;points=[[0,0.5],[1,0.5]];portConstraint=eastwest;" parent="nlcIiToaz_BaQZgEdk1q-112" vertex="1">
          <mxGeometry y="104" width="200" height="26" as="geometry" />
        </mxCell>
        <mxCell id="nlcIiToaz_BaQZgEdk1q-120" value="+ method(type): type" style="text;html=1;strokeColor=none;fillColor=none;align=left;verticalAlign=top;spacingLeft=4;spacingRight=4;whiteSpace=wrap;overflow=hidden;rotatable=0;points=[[0,0.5],[1,0.5]];portConstraint=eastwest;" parent="nlcIiToaz_BaQZgEdk1q-112" vertex="1">
          <mxGeometry y="130" width="200" height="4" as="geometry" />
        </mxCell>
        <mxCell id="nlcIiToaz_BaQZgEdk1q-123" value="" style="line;html=1;strokeWidth=1;fillColor=none;align=left;verticalAlign=middle;spacingTop=-1;spacingLeft=3;spacingRight=3;rotatable=0;labelPosition=right;points=[];portConstraint=eastwest;" parent="nlcIiToaz_BaQZgEdk1q-112" vertex="1">
          <mxGeometry y="134" width="200" height="8" as="geometry" />
        </mxCell>
        <mxCell id="nlcIiToaz_BaQZgEdk1q-124" value="PK_Subproducto (Id_subproducto)" style="text;html=1;strokeColor=none;fillColor=none;align=left;verticalAlign=top;spacingLeft=4;spacingRight=4;whiteSpace=wrap;overflow=hidden;rotatable=0;points=[[0,0.5],[1,0.5]];portConstraint=eastwest;" parent="nlcIiToaz_BaQZgEdk1q-112" vertex="1">
          <mxGeometry y="142" width="200" height="38" as="geometry" />
        </mxCell>
        <mxCell id="nlcIiToaz_BaQZgEdk1q-125" value="FK_productsub Id_producto References Product" style="text;html=1;strokeColor=none;fillColor=none;align=left;verticalAlign=top;spacingLeft=4;spacingRight=4;whiteSpace=wrap;overflow=hidden;rotatable=0;points=[[0,0.5],[1,0.5]];portConstraint=eastwest;" parent="nlcIiToaz_BaQZgEdk1q-112" vertex="1">
          <mxGeometry y="180" width="200" height="40" as="geometry" />
        </mxCell>
        <mxCell id="jU_3QIgpvsVhEryn2_ra-102" style="edgeStyle=orthogonalEdgeStyle;rounded=0;orthogonalLoop=1;jettySize=auto;html=1;entryX=0.5;entryY=1;entryDx=0;entryDy=0;" edge="1" parent="1" source="nlcIiToaz_BaQZgEdk1q-126" target="78961159f06e98e8-56">
          <mxGeometry relative="1" as="geometry" />
        </mxCell>
        <mxCell id="nlcIiToaz_BaQZgEdk1q-126" value="&lt;span style=&quot;color: rgba(0, 0, 0, 0); font-family: monospace; font-size: 0px; text-align: start; text-wrap: nowrap;&quot;&gt;%3CmxGraphModel%3E%3Croot%3E%3CmxCell%20id%3D%220%22%2F%3E%3CmxCell%20id%3D%221%22%20parent%3D%220%22%2F%3E%3CmxCell%20id%3D%222%22%20value%3D%221%3AN%22%20style%3D%22text%3Bhtml%3D1%3BstrokeColor%3Dnone%3BfillColor%3Dnone%3Balign%3Dleft%3BverticalAlign%3Dtop%3BspacingLeft%3D4%3BspacingRight%3D4%3BwhiteSpace%3Dwrap%3Boverflow%3Dhidden%3Brotatable%3D0%3Bpoints%3D%5B%5B0%2C0.5%5D%2C%5B1%2C0.5%5D%5D%3BportConstraint%3Deastwest%3B%22%20vertex%3D%221%22%20parent%3D%221%22%3E%3CmxGeometry%20x%3D%22260%22%20y%3D%22156.5%22%20width%3D%2230%22%20height%3D%2230%22%20as%3D%22geometry%22%2F%3E%3C%2FmxCell%3E%3C%2Froot%3E%3C%2FmxGraphModel%3E&lt;/span&gt;" style="rhombus;whiteSpace=wrap;html=1;" parent="1" vertex="1">
          <mxGeometry x="84.86" y="106.5" width="115" height="80" as="geometry" />
        </mxCell>
        <mxCell id="nlcIiToaz_BaQZgEdk1q-127" value="0:N" style="text;html=1;strokeColor=none;fillColor=none;align=left;verticalAlign=top;spacingLeft=4;spacingRight=4;whiteSpace=wrap;overflow=hidden;rotatable=0;points=[[0,0.5],[1,0.5]];portConstraint=eastwest;" parent="1" vertex="1">
          <mxGeometry x="69.86" y="90" width="30" height="30" as="geometry" />
        </mxCell>
        <mxCell id="nlcIiToaz_BaQZgEdk1q-128" value="0:1" style="text;html=1;strokeColor=none;fillColor=none;align=left;verticalAlign=top;spacingLeft=4;spacingRight=4;whiteSpace=wrap;overflow=hidden;rotatable=0;points=[[0,0.5],[1,0.5]];portConstraint=eastwest;" parent="1" vertex="1">
          <mxGeometry x="69.86" y="180" width="30" height="30" as="geometry" />
        </mxCell>
        <mxCell id="nlcIiToaz_BaQZgEdk1q-129" value="CONTIENE" style="text;html=1;strokeColor=none;fillColor=none;align=left;verticalAlign=top;spacingLeft=4;spacingRight=4;whiteSpace=wrap;overflow=hidden;rotatable=0;points=[[0,0.5],[1,0.5]];portConstraint=eastwest;" parent="1" vertex="1">
          <mxGeometry x="102.36" y="134.3699999999999" width="80" height="24.25" as="geometry" />
        </mxCell>
        <mxCell id="nlcIiToaz_BaQZgEdk1q-130" value="1:N" style="text;html=1;strokeColor=none;fillColor=none;align=left;verticalAlign=top;spacingLeft=4;spacingRight=4;whiteSpace=wrap;overflow=hidden;rotatable=0;points=[[0,0.5],[1,0.5]];portConstraint=eastwest;" parent="1" vertex="1">
          <mxGeometry x="39.86" y="140" width="35" height="30" as="geometry" />
        </mxCell>
        <mxCell id="nlcIiToaz_BaQZgEdk1q-169" style="edgeStyle=orthogonalEdgeStyle;rounded=0;orthogonalLoop=1;jettySize=auto;html=1;entryX=1;entryY=0.5;entryDx=0;entryDy=0;" parent="1" source="nlcIiToaz_BaQZgEdk1q-137" target="nlcIiToaz_BaQZgEdk1q-160" edge="1">
          <mxGeometry relative="1" as="geometry" />
        </mxCell>
        <mxCell id="jU_3QIgpvsVhEryn2_ra-131" style="edgeStyle=orthogonalEdgeStyle;rounded=0;orthogonalLoop=1;jettySize=auto;html=1;" edge="1" parent="1" source="nlcIiToaz_BaQZgEdk1q-137">
          <mxGeometry relative="1" as="geometry">
            <mxPoint x="900" y="-380" as="targetPoint" />
          </mxGeometry>
        </mxCell>
        <mxCell id="jU_3QIgpvsVhEryn2_ra-153" style="edgeStyle=orthogonalEdgeStyle;rounded=0;orthogonalLoop=1;jettySize=auto;html=1;" edge="1" parent="1" source="nlcIiToaz_BaQZgEdk1q-137">
          <mxGeometry relative="1" as="geometry">
            <mxPoint x="840" y="570" as="targetPoint" />
          </mxGeometry>
        </mxCell>
        <mxCell id="nlcIiToaz_BaQZgEdk1q-137" value="ENCUESTA" style="swimlane;html=1;fontStyle=1;align=center;verticalAlign=top;childLayout=stackLayout;horizontal=1;startSize=26;horizontalStack=0;resizeParent=1;resizeLast=0;collapsible=1;marginBottom=0;swimlaneFillColor=#ffffff;rounded=0;shadow=0;comic=0;labelBackgroundColor=none;strokeWidth=1;fillColor=none;fontFamily=Verdana;fontSize=12" parent="1" vertex="1">
          <mxGeometry x="699.86" y="-50" width="250" height="490" as="geometry">
            <mxRectangle x="430" y="83" width="100" height="30" as="alternateBounds" />
          </mxGeometry>
        </mxCell>
        <mxCell id="nlcIiToaz_BaQZgEdk1q-138" value="Id_encuesta:char&lt;span style=&quot;white-space: pre;&quot;&gt;&#x9;&lt;/span&gt;PK&lt;span style=&quot;white-space: pre;&quot;&gt;&#x9;&lt;/span&gt;&lt;span style=&quot;white-space: pre;&quot;&gt;&#x9;&lt;/span&gt;&lt;span style=&quot;white-space: pre;&quot;&gt;&#x9;&lt;/span&gt;" style="text;html=1;strokeColor=none;fillColor=none;align=left;verticalAlign=top;spacingLeft=4;spacingRight=4;whiteSpace=wrap;overflow=hidden;rotatable=0;points=[[0,0.5],[1,0.5]];portConstraint=eastwest;" parent="nlcIiToaz_BaQZgEdk1q-137" vertex="1">
          <mxGeometry y="26" width="250" height="26" as="geometry" />
        </mxCell>
        <mxCell id="nlcIiToaz_BaQZgEdk1q-139" value="Dni:varchar&lt;span style=&quot;white-space: pre;&quot;&gt;&#x9;&lt;/span&gt;&lt;span style=&quot;white-space: pre;&quot;&gt;&#x9;&lt;/span&gt;&lt;span style=&quot;white-space: pre;&quot;&gt;&#x9;&lt;/span&gt;&lt;span style=&quot;white-space: pre;&quot;&gt;&#x9;&lt;/span&gt;" style="text;html=1;strokeColor=none;fillColor=none;align=left;verticalAlign=top;spacingLeft=4;spacingRight=4;whiteSpace=wrap;overflow=hidden;rotatable=0;points=[[0,0.5],[1,0.5]];portConstraint=eastwest;" parent="nlcIiToaz_BaQZgEdk1q-137" vertex="1">
          <mxGeometry y="52" width="250" height="26" as="geometry" />
        </mxCell>
        <mxCell id="nlcIiToaz_BaQZgEdk1q-140" value="Id_producto: varchar" style="text;html=1;strokeColor=none;fillColor=none;align=left;verticalAlign=top;spacingLeft=4;spacingRight=4;whiteSpace=wrap;overflow=hidden;rotatable=0;points=[[0,0.5],[1,0.5]];portConstraint=eastwest;" parent="nlcIiToaz_BaQZgEdk1q-137" vertex="1">
          <mxGeometry y="78" width="250" height="26" as="geometry" />
        </mxCell>
        <mxCell id="nlcIiToaz_BaQZgEdk1q-143" value="Id_subproducto:varchar" style="text;html=1;strokeColor=none;fillColor=none;align=left;verticalAlign=top;spacingLeft=4;spacingRight=4;whiteSpace=wrap;overflow=hidden;rotatable=0;points=[[0,0.5],[1,0.5]];portConstraint=eastwest;" parent="nlcIiToaz_BaQZgEdk1q-137" vertex="1">
          <mxGeometry y="104" width="250" height="26" as="geometry" />
        </mxCell>
        <mxCell id="nlcIiToaz_BaQZgEdk1q-145" value="+ method(type): type" style="text;html=1;strokeColor=none;fillColor=none;align=left;verticalAlign=top;spacingLeft=4;spacingRight=4;whiteSpace=wrap;overflow=hidden;rotatable=0;points=[[0,0.5],[1,0.5]];portConstraint=eastwest;" parent="nlcIiToaz_BaQZgEdk1q-137" vertex="1">
          <mxGeometry y="130" width="250" height="4" as="geometry" />
        </mxCell>
        <mxCell id="nlcIiToaz_BaQZgEdk1q-146" value="Fecha_creacion:Date" style="text;html=1;strokeColor=none;fillColor=none;align=left;verticalAlign=top;spacingLeft=4;spacingRight=4;whiteSpace=wrap;overflow=hidden;rotatable=0;points=[[0,0.5],[1,0.5]];portConstraint=eastwest;" parent="nlcIiToaz_BaQZgEdk1q-137" vertex="1">
          <mxGeometry y="134" width="250" height="26" as="geometry" />
        </mxCell>
        <mxCell id="nlcIiToaz_BaQZgEdk1q-148" value="" style="line;html=1;strokeWidth=1;fillColor=none;align=left;verticalAlign=middle;spacingTop=-1;spacingLeft=3;spacingRight=3;rotatable=0;labelPosition=right;points=[];portConstraint=eastwest;" parent="nlcIiToaz_BaQZgEdk1q-137" vertex="1">
          <mxGeometry y="160" width="250" height="4" as="geometry" />
        </mxCell>
        <mxCell id="nlcIiToaz_BaQZgEdk1q-150" value="PK_ENCUESTA PRIMARY KEY (Id_Encuesta)" style="text;html=1;strokeColor=none;fillColor=none;align=left;verticalAlign=top;spacingLeft=4;spacingRight=4;whiteSpace=wrap;overflow=hidden;rotatable=0;points=[[0,0.5],[1,0.5]];portConstraint=eastwest;" parent="nlcIiToaz_BaQZgEdk1q-137" vertex="1">
          <mxGeometry y="164" width="250" height="40" as="geometry" />
        </mxCell>
        <mxCell id="nlcIiToaz_BaQZgEdk1q-152" value="FK_PRODUCTENCUESTA FOREIGN KEY (Id_producto)&lt;div&gt;REFERENCES PRODUCT (Id_producto)&amp;nbsp;&lt;/div&gt;" style="text;html=1;strokeColor=none;fillColor=none;align=left;verticalAlign=top;spacingLeft=4;spacingRight=4;whiteSpace=wrap;overflow=hidden;rotatable=0;points=[[0,0.5],[1,0.5]];portConstraint=eastwest;" parent="nlcIiToaz_BaQZgEdk1q-137" vertex="1">
          <mxGeometry y="204" width="250" height="76" as="geometry" />
        </mxCell>
        <mxCell id="nlcIiToaz_BaQZgEdk1q-153" value="FK_SUBENCUESTA FOREIGN KEY (Id_subproducto) REFERENCES SUBPRODUCT&amp;nbsp;" style="text;html=1;strokeColor=none;fillColor=none;align=left;verticalAlign=top;spacingLeft=4;spacingRight=4;whiteSpace=wrap;overflow=hidden;rotatable=0;points=[[0,0.5],[1,0.5]];portConstraint=eastwest;" parent="nlcIiToaz_BaQZgEdk1q-137" vertex="1">
          <mxGeometry y="280" width="250" height="60" as="geometry" />
        </mxCell>
        <mxCell id="nlcIiToaz_BaQZgEdk1q-156" style="edgeStyle=orthogonalEdgeStyle;rounded=0;orthogonalLoop=1;jettySize=auto;html=1;entryX=0;entryY=0.5;entryDx=0;entryDy=0;" parent="1" source="nlcIiToaz_BaQZgEdk1q-104" target="nlcIiToaz_BaQZgEdk1q-125" edge="1">
          <mxGeometry relative="1" as="geometry">
            <Array as="points">
              <mxPoint x="229.86" y="-111" />
              <mxPoint x="229.86" y="210" />
              <mxPoint x="29.860000000000003" y="210" />
              <mxPoint x="29.860000000000003" y="440" />
            </Array>
          </mxGeometry>
        </mxCell>
        <mxCell id="nlcIiToaz_BaQZgEdk1q-157" style="edgeStyle=orthogonalEdgeStyle;rounded=0;orthogonalLoop=1;jettySize=auto;html=1;entryX=0;entryY=0.5;entryDx=0;entryDy=0;" parent="1" source="nlcIiToaz_BaQZgEdk1q-104" target="nlcIiToaz_BaQZgEdk1q-152" edge="1">
          <mxGeometry relative="1" as="geometry">
            <Array as="points">
              <mxPoint x="329.86" y="-111" />
              <mxPoint x="329.86" y="272" />
            </Array>
          </mxGeometry>
        </mxCell>
        <mxCell id="nlcIiToaz_BaQZgEdk1q-158" style="edgeStyle=orthogonalEdgeStyle;rounded=0;orthogonalLoop=1;jettySize=auto;html=1;entryX=0.007;entryY=0.617;entryDx=0;entryDy=0;entryPerimeter=0;" parent="1" source="nlcIiToaz_BaQZgEdk1q-113" target="nlcIiToaz_BaQZgEdk1q-153" edge="1">
          <mxGeometry relative="1" as="geometry" />
        </mxCell>
        <mxCell id="nlcIiToaz_BaQZgEdk1q-160" value="&lt;span style=&quot;color: rgba(0, 0, 0, 0); font-family: monospace; font-size: 0px; text-align: start; text-wrap: nowrap;&quot;&gt;%3CmxGraphModel%3E%3Croot%3E%3CmxCell%20id%3D%220%22%2F%3E%3CmxCell%20id%3D%221%22%20parent%3D%220%22%2F%3E%3CmxCell%20id%3D%222%22%20value%3D%221%3AN%22%20style%3D%22text%3Bhtml%3D1%3BstrokeColor%3Dnone%3BfillColor%3Dnone%3Balign%3Dleft%3BverticalAlign%3Dtop%3BspacingLeft%3D4%3BspacingRight%3D4%3BwhiteSpace%3Dwrap%3Boverflow%3Dhidden%3Brotatable%3D0%3Bpoints%3D%5B%5B0%2C0.5%5D%2C%5B1%2C0.5%5D%5D%3BportConstraint%3Deastwest%3B%22%20vertex%3D%221%22%20parent%3D%221%22%3E%3CmxGeometry%20x%3D%22260%22%20y%3D%22156.5%22%20width%3D%2230%22%20height%3D%2230%22%20as%3D%22geometry%22%2F%3E%3C%2FmxCell%3E%3C%2Froot%3E%3C%2FmxGraphModel%3E&lt;/span&gt;" style="rhombus;whiteSpace=wrap;html=1;" parent="1" vertex="1">
          <mxGeometry x="444.86" y="20.75" width="80" height="80" as="geometry" />
        </mxCell>
        <mxCell id="nlcIiToaz_BaQZgEdk1q-161" value="0:1" style="text;html=1;strokeColor=none;fillColor=none;align=left;verticalAlign=top;spacingLeft=4;spacingRight=4;whiteSpace=wrap;overflow=hidden;rotatable=0;points=[[0,0.5],[1,0.5]];portConstraint=eastwest;" parent="1" vertex="1">
          <mxGeometry x="374.86" y="30" width="30" height="30" as="geometry" />
        </mxCell>
        <mxCell id="nlcIiToaz_BaQZgEdk1q-162" value="0:N&amp;nbsp;" style="text;html=1;strokeColor=none;fillColor=none;align=left;verticalAlign=top;spacingLeft=4;spacingRight=4;whiteSpace=wrap;overflow=hidden;rotatable=0;points=[[0,0.5],[1,0.5]];portConstraint=eastwest;" parent="1" vertex="1">
          <mxGeometry x="554.86" y="30" width="30" height="30" as="geometry" />
        </mxCell>
        <mxCell id="nlcIiToaz_BaQZgEdk1q-163" value="TIENE" style="text;html=1;strokeColor=none;fillColor=none;align=left;verticalAlign=top;spacingLeft=4;spacingRight=4;whiteSpace=wrap;overflow=hidden;rotatable=0;points=[[0,0.5],[1,0.5]];portConstraint=eastwest;" parent="1" vertex="1">
          <mxGeometry x="459.86" y="48.61999999999989" width="50" height="24.25" as="geometry" />
        </mxCell>
        <mxCell id="nlcIiToaz_BaQZgEdk1q-164" value="1:N" style="text;html=1;strokeColor=none;fillColor=none;align=left;verticalAlign=top;spacingLeft=4;spacingRight=4;whiteSpace=wrap;overflow=hidden;rotatable=0;points=[[0,0.5],[1,0.5]];portConstraint=eastwest;" parent="1" vertex="1">
          <mxGeometry x="467.36" y="-10" width="35" height="30" as="geometry" />
        </mxCell>
        <mxCell id="nlcIiToaz_BaQZgEdk1q-170" value="&lt;div&gt;&lt;br&gt;&lt;/div&gt;&lt;div&gt;&lt;br&gt;&lt;/div&gt;" style="text;html=1;align=center;verticalAlign=middle;resizable=0;points=[];autosize=1;strokeColor=none;fillColor=none;" parent="1" vertex="1">
          <mxGeometry x="559.86" y="283" width="20" height="40" as="geometry" />
        </mxCell>
        <mxCell id="jU_3QIgpvsVhEryn2_ra-111" style="edgeStyle=orthogonalEdgeStyle;rounded=0;orthogonalLoop=1;jettySize=auto;html=1;" edge="1" parent="1" source="jU_3QIgpvsVhEryn2_ra-1">
          <mxGeometry relative="1" as="geometry">
            <mxPoint x="2095" y="-560" as="targetPoint" />
          </mxGeometry>
        </mxCell>
        <mxCell id="jU_3QIgpvsVhEryn2_ra-1" value="MODULO" style="swimlane;html=1;fontStyle=1;align=center;verticalAlign=top;childLayout=stackLayout;horizontal=1;startSize=26;horizontalStack=0;resizeParent=1;resizeLast=0;collapsible=1;marginBottom=0;swimlaneFillColor=#ffffff;rounded=0;shadow=0;comic=0;labelBackgroundColor=none;strokeWidth=1;fillColor=none;fontFamily=Verdana;fontSize=12" vertex="1" parent="1">
          <mxGeometry x="2015" y="-490" width="160" height="170" as="geometry">
            <mxRectangle x="430" y="83" width="100" height="30" as="alternateBounds" />
          </mxGeometry>
        </mxCell>
        <mxCell id="jU_3QIgpvsVhEryn2_ra-3" value="Id_modulo : char PK" style="text;html=1;strokeColor=none;fillColor=none;align=left;verticalAlign=top;spacingLeft=4;spacingRight=4;whiteSpace=wrap;overflow=hidden;rotatable=0;points=[[0,0.5],[1,0.5]];portConstraint=eastwest;" vertex="1" parent="jU_3QIgpvsVhEryn2_ra-1">
          <mxGeometry y="26" width="160" height="26" as="geometry" />
        </mxCell>
        <mxCell id="jU_3QIgpvsVhEryn2_ra-8" value="Nombre_modulo:varchar" style="text;html=1;strokeColor=none;fillColor=none;align=left;verticalAlign=top;spacingLeft=4;spacingRight=4;whiteSpace=wrap;overflow=hidden;rotatable=0;points=[[0,0.5],[1,0.5]];portConstraint=eastwest;" vertex="1" parent="jU_3QIgpvsVhEryn2_ra-1">
          <mxGeometry y="52" width="160" height="24" as="geometry" />
        </mxCell>
        <mxCell id="jU_3QIgpvsVhEryn2_ra-9" value="+ method(type): type" style="text;html=1;strokeColor=none;fillColor=none;align=left;verticalAlign=top;spacingLeft=4;spacingRight=4;whiteSpace=wrap;overflow=hidden;rotatable=0;points=[[0,0.5],[1,0.5]];portConstraint=eastwest;" vertex="1" parent="jU_3QIgpvsVhEryn2_ra-1">
          <mxGeometry y="76" width="160" height="4" as="geometry" />
        </mxCell>
        <mxCell id="jU_3QIgpvsVhEryn2_ra-12" value="" style="line;html=1;strokeWidth=1;fillColor=none;align=left;verticalAlign=middle;spacingTop=-1;spacingLeft=3;spacingRight=3;rotatable=0;labelPosition=right;points=[];portConstraint=eastwest;" vertex="1" parent="jU_3QIgpvsVhEryn2_ra-1">
          <mxGeometry y="80" width="160" height="8" as="geometry" />
        </mxCell>
        <mxCell id="jU_3QIgpvsVhEryn2_ra-99" style="edgeStyle=orthogonalEdgeStyle;rounded=0;orthogonalLoop=1;jettySize=auto;html=1;entryX=1;entryY=0.5;entryDx=0;entryDy=0;" edge="1" parent="1" source="jU_3QIgpvsVhEryn2_ra-25" target="jU_3QIgpvsVhEryn2_ra-89">
          <mxGeometry relative="1" as="geometry" />
        </mxCell>
        <mxCell id="jU_3QIgpvsVhEryn2_ra-109" style="edgeStyle=orthogonalEdgeStyle;rounded=0;orthogonalLoop=1;jettySize=auto;html=1;entryX=0.5;entryY=0;entryDx=0;entryDy=0;" edge="1" parent="1" source="jU_3QIgpvsVhEryn2_ra-25" target="jU_3QIgpvsVhEryn2_ra-104">
          <mxGeometry relative="1" as="geometry" />
        </mxCell>
        <mxCell id="jU_3QIgpvsVhEryn2_ra-25" value="OPERACION" style="swimlane;html=1;fontStyle=1;align=center;verticalAlign=top;childLayout=stackLayout;horizontal=1;startSize=26;horizontalStack=0;resizeParent=1;resizeLast=0;collapsible=1;marginBottom=0;swimlaneFillColor=#ffffff;rounded=0;shadow=0;comic=0;labelBackgroundColor=none;strokeWidth=1;fillColor=none;fontFamily=Verdana;fontSize=12" vertex="1" parent="1">
          <mxGeometry x="1980" y="-910" width="290" height="190" as="geometry">
            <mxRectangle x="430" y="83" width="100" height="30" as="alternateBounds" />
          </mxGeometry>
        </mxCell>
        <mxCell id="jU_3QIgpvsVhEryn2_ra-26" value="Id_operacion INT AUTOINCREMENT PK" style="text;html=1;strokeColor=none;fillColor=none;align=left;verticalAlign=top;spacingLeft=4;spacingRight=4;whiteSpace=wrap;overflow=hidden;rotatable=0;points=[[0,0.5],[1,0.5]];portConstraint=eastwest;" vertex="1" parent="jU_3QIgpvsVhEryn2_ra-25">
          <mxGeometry y="26" width="290" height="30" as="geometry" />
        </mxCell>
        <mxCell id="jU_3QIgpvsVhEryn2_ra-27" value="Nombre:varchar" style="text;html=1;strokeColor=none;fillColor=none;align=left;verticalAlign=top;spacingLeft=4;spacingRight=4;whiteSpace=wrap;overflow=hidden;rotatable=0;points=[[0,0.5],[1,0.5]];portConstraint=eastwest;" vertex="1" parent="jU_3QIgpvsVhEryn2_ra-25">
          <mxGeometry y="56" width="290" height="18" as="geometry" />
        </mxCell>
        <mxCell id="jU_3QIgpvsVhEryn2_ra-28" value="Id_modulo:char" style="text;html=1;strokeColor=none;fillColor=none;align=left;verticalAlign=top;spacingLeft=4;spacingRight=4;whiteSpace=wrap;overflow=hidden;rotatable=0;points=[[0,0.5],[1,0.5]];portConstraint=eastwest;" vertex="1" parent="jU_3QIgpvsVhEryn2_ra-25">
          <mxGeometry y="74" width="290" height="26" as="geometry" />
        </mxCell>
        <mxCell id="jU_3QIgpvsVhEryn2_ra-30" value="+ method(type): type" style="text;html=1;strokeColor=none;fillColor=none;align=left;verticalAlign=top;spacingLeft=4;spacingRight=4;whiteSpace=wrap;overflow=hidden;rotatable=0;points=[[0,0.5],[1,0.5]];portConstraint=eastwest;" vertex="1" parent="jU_3QIgpvsVhEryn2_ra-25">
          <mxGeometry y="100" width="290" height="4" as="geometry" />
        </mxCell>
        <mxCell id="jU_3QIgpvsVhEryn2_ra-31" value="" style="line;html=1;strokeWidth=1;fillColor=none;align=left;verticalAlign=middle;spacingTop=-1;spacingLeft=3;spacingRight=3;rotatable=0;labelPosition=right;points=[];portConstraint=eastwest;" vertex="1" parent="jU_3QIgpvsVhEryn2_ra-25">
          <mxGeometry y="104" width="290" height="32" as="geometry" />
        </mxCell>
        <mxCell id="jU_3QIgpvsVhEryn2_ra-35" value="FK_MODOPER FOREIGN KEY (Id_modulo)" style="text;html=1;strokeColor=none;fillColor=none;align=left;verticalAlign=top;spacingLeft=4;spacingRight=4;whiteSpace=wrap;overflow=hidden;rotatable=0;points=[[0,0.5],[1,0.5]];portConstraint=eastwest;" vertex="1" parent="jU_3QIgpvsVhEryn2_ra-25">
          <mxGeometry y="136" width="290" height="38" as="geometry" />
        </mxCell>
        <mxCell id="jU_3QIgpvsVhEryn2_ra-95" style="edgeStyle=orthogonalEdgeStyle;rounded=0;orthogonalLoop=1;jettySize=auto;html=1;exitX=0.5;exitY=1;exitDx=0;exitDy=0;entryX=0.5;entryY=0;entryDx=0;entryDy=0;" edge="1" parent="1" source="jU_3QIgpvsVhEryn2_ra-45" target="jU_3QIgpvsVhEryn2_ra-89">
          <mxGeometry relative="1" as="geometry" />
        </mxCell>
        <mxCell id="jU_3QIgpvsVhEryn2_ra-45" value="ROL_OPERACION" style="swimlane;html=1;fontStyle=1;align=center;verticalAlign=top;childLayout=stackLayout;horizontal=1;startSize=26;horizontalStack=0;resizeParent=1;resizeLast=0;collapsible=1;marginBottom=0;swimlaneFillColor=#ffffff;rounded=0;shadow=0;comic=0;labelBackgroundColor=none;strokeWidth=1;fillColor=none;fontFamily=Verdana;fontSize=12" vertex="1" parent="1">
          <mxGeometry x="1530" y="-1000" width="270" height="290" as="geometry">
            <mxRectangle x="430" y="83" width="100" height="30" as="alternateBounds" />
          </mxGeometry>
        </mxCell>
        <mxCell id="jU_3QIgpvsVhEryn2_ra-46" value="Id_roloperacion INT AUTOINCREMENT PK" style="text;html=1;strokeColor=none;fillColor=none;align=left;verticalAlign=top;spacingLeft=4;spacingRight=4;whiteSpace=wrap;overflow=hidden;rotatable=0;points=[[0,0.5],[1,0.5]];portConstraint=eastwest;" vertex="1" parent="jU_3QIgpvsVhEryn2_ra-45">
          <mxGeometry y="26" width="270" height="30" as="geometry" />
        </mxCell>
        <mxCell id="jU_3QIgpvsVhEryn2_ra-47" value="Id_rol: int AUTOINCREMENT" style="text;html=1;strokeColor=none;fillColor=none;align=left;verticalAlign=top;spacingLeft=4;spacingRight=4;whiteSpace=wrap;overflow=hidden;rotatable=0;points=[[0,0.5],[1,0.5]];portConstraint=eastwest;" vertex="1" parent="jU_3QIgpvsVhEryn2_ra-45">
          <mxGeometry y="56" width="270" height="18" as="geometry" />
        </mxCell>
        <mxCell id="jU_3QIgpvsVhEryn2_ra-49" value="+ method(type): type" style="text;html=1;strokeColor=none;fillColor=none;align=left;verticalAlign=top;spacingLeft=4;spacingRight=4;whiteSpace=wrap;overflow=hidden;rotatable=0;points=[[0,0.5],[1,0.5]];portConstraint=eastwest;" vertex="1" parent="jU_3QIgpvsVhEryn2_ra-45">
          <mxGeometry y="74" width="270" height="4" as="geometry" />
        </mxCell>
        <mxCell id="jU_3QIgpvsVhEryn2_ra-48" value="Id_operacion:char" style="text;html=1;strokeColor=none;fillColor=none;align=left;verticalAlign=top;spacingLeft=4;spacingRight=4;whiteSpace=wrap;overflow=hidden;rotatable=0;points=[[0,0.5],[1,0.5]];portConstraint=eastwest;" vertex="1" parent="jU_3QIgpvsVhEryn2_ra-45">
          <mxGeometry y="78" width="270" height="22" as="geometry" />
        </mxCell>
        <mxCell id="jU_3QIgpvsVhEryn2_ra-50" value="" style="line;html=1;strokeWidth=1;fillColor=none;align=left;verticalAlign=middle;spacingTop=-1;spacingLeft=3;spacingRight=3;rotatable=0;labelPosition=right;points=[];portConstraint=eastwest;" vertex="1" parent="jU_3QIgpvsVhEryn2_ra-45">
          <mxGeometry y="100" width="270" height="32" as="geometry" />
        </mxCell>
        <mxCell id="jU_3QIgpvsVhEryn2_ra-51" value="FK_MODOPER FOREIGN KEY (Id_modulo)" style="text;html=1;strokeColor=none;fillColor=none;align=left;verticalAlign=top;spacingLeft=4;spacingRight=4;whiteSpace=wrap;overflow=hidden;rotatable=0;points=[[0,0.5],[1,0.5]];portConstraint=eastwest;" vertex="1" parent="jU_3QIgpvsVhEryn2_ra-45">
          <mxGeometry y="132" width="270" height="34" as="geometry" />
        </mxCell>
        <mxCell id="jU_3QIgpvsVhEryn2_ra-82" value="FK_ROL Id_rol REFERENCES ROL" style="text;html=1;strokeColor=none;fillColor=none;align=left;verticalAlign=top;spacingLeft=4;spacingRight=4;whiteSpace=wrap;overflow=hidden;rotatable=0;points=[[0,0.5],[1,0.5]];portConstraint=eastwest;" vertex="1" parent="jU_3QIgpvsVhEryn2_ra-45">
          <mxGeometry y="166" width="270" height="34" as="geometry" />
        </mxCell>
        <mxCell id="jU_3QIgpvsVhEryn2_ra-84" value="FK_OPERACION Id_operacion REFERENCES OPERACIONES" style="text;html=1;strokeColor=none;fillColor=none;align=left;verticalAlign=top;spacingLeft=4;spacingRight=4;whiteSpace=wrap;overflow=hidden;rotatable=0;points=[[0,0.5],[1,0.5]];portConstraint=eastwest;" vertex="1" parent="jU_3QIgpvsVhEryn2_ra-45">
          <mxGeometry y="200" width="270" height="34" as="geometry" />
        </mxCell>
        <mxCell id="jU_3QIgpvsVhEryn2_ra-52" value="ROL" style="swimlane;html=1;fontStyle=1;align=center;verticalAlign=top;childLayout=stackLayout;horizontal=1;startSize=26;horizontalStack=0;resizeParent=1;resizeLast=0;collapsible=1;marginBottom=0;swimlaneFillColor=#ffffff;rounded=0;shadow=0;comic=0;labelBackgroundColor=none;strokeWidth=1;fillColor=none;fontFamily=Verdana;fontSize=12" vertex="1" parent="1">
          <mxGeometry x="1240" y="-960" width="160" height="277" as="geometry" />
        </mxCell>
        <mxCell id="jU_3QIgpvsVhEryn2_ra-53" value="Id_rol:int PK AUTOINCREMENT&lt;span style=&quot;white-space: pre;&quot;&gt;&#x9;&lt;/span&gt;" style="text;html=1;strokeColor=none;fillColor=none;align=left;verticalAlign=top;spacingLeft=4;spacingRight=4;whiteSpace=wrap;overflow=hidden;rotatable=0;points=[[0,0.5],[1,0.5]];portConstraint=eastwest;" vertex="1" parent="jU_3QIgpvsVhEryn2_ra-52">
          <mxGeometry y="26" width="160" height="54" as="geometry" />
        </mxCell>
        <mxCell id="jU_3QIgpvsVhEryn2_ra-54" value="Rol_Value: varchar" style="text;html=1;strokeColor=none;fillColor=none;align=left;verticalAlign=top;spacingLeft=4;spacingRight=4;whiteSpace=wrap;overflow=hidden;rotatable=0;points=[[0,0.5],[1,0.5]];portConstraint=eastwest;" vertex="1" parent="jU_3QIgpvsVhEryn2_ra-52">
          <mxGeometry y="80" width="160" height="122" as="geometry" />
        </mxCell>
        <mxCell id="jU_3QIgpvsVhEryn2_ra-55" value="" style="line;html=1;strokeWidth=1;fillColor=none;align=left;verticalAlign=middle;spacingTop=-1;spacingLeft=3;spacingRight=3;rotatable=0;labelPosition=right;points=[];portConstraint=eastwest;" vertex="1" parent="jU_3QIgpvsVhEryn2_ra-52">
          <mxGeometry y="202" width="160" height="8" as="geometry" />
        </mxCell>
        <mxCell id="jU_3QIgpvsVhEryn2_ra-56" value="PK_ROL PRIMARY KEY (Rol_value)" style="text;html=1;strokeColor=none;fillColor=none;align=left;verticalAlign=top;spacingLeft=4;spacingRight=4;whiteSpace=wrap;overflow=hidden;rotatable=0;points=[[0,0.5],[1,0.5]];portConstraint=eastwest;" vertex="1" parent="jU_3QIgpvsVhEryn2_ra-52">
          <mxGeometry y="210" width="160" height="32" as="geometry" />
        </mxCell>
        <mxCell id="jU_3QIgpvsVhEryn2_ra-65" value="&lt;span style=&quot;color: rgba(0, 0, 0, 0); font-family: monospace; font-size: 0px; text-align: start; text-wrap: nowrap;&quot;&gt;%3CmxGraphModel%3E%3Croot%3E%3CmxCell%20id%3D%220%22%2F%3E%3CmxCell%20id%3D%221%22%20parent%3D%220%22%2F%3E%3CmxCell%20id%3D%222%22%20value%3D%221%3AN%22%20style%3D%22text%3Bhtml%3D1%3BstrokeColor%3Dnone%3BfillColor%3Dnone%3Balign%3Dleft%3BverticalAlign%3Dtop%3BspacingLeft%3D4%3BspacingRight%3D4%3BwhiteSpace%3Dwrap%3Boverflow%3Dhidden%3Brotatable%3D0%3Bpoints%3D%5B%5B0%2C0.5%5D%2C%5B1%2C0.5%5D%5D%3BportConstraint%3Deastwest%3B%22%20vertex%3D%221%22%20parent%3D%221%22%3E%3CmxGeometry%20x%3D%22260%22%20y%3D%22156.5%22%20width%3D%2230%22%20height%3D%2230%22%20as%3D%22geometry%22%2F%3E%3C%2FmxCell%3E%3C%2Froot%3E%3C%2FmxGraphModel%3E&lt;/span&gt;" style="rhombus;whiteSpace=wrap;html=1;" vertex="1" parent="1">
          <mxGeometry x="1060" y="-841.75" width="80" height="80" as="geometry" />
        </mxCell>
        <mxCell id="jU_3QIgpvsVhEryn2_ra-66" value="1" style="text;html=1;strokeColor=none;fillColor=none;align=left;verticalAlign=top;spacingLeft=4;spacingRight=4;whiteSpace=wrap;overflow=hidden;rotatable=0;points=[[0,0.5],[1,0.5]];portConstraint=eastwest;" vertex="1" parent="1">
          <mxGeometry x="1020" y="-841.75" width="30" height="30" as="geometry" />
        </mxCell>
        <mxCell id="jU_3QIgpvsVhEryn2_ra-67" value="0:N" style="text;html=1;strokeColor=none;fillColor=none;align=left;verticalAlign=top;spacingLeft=4;spacingRight=4;whiteSpace=wrap;overflow=hidden;rotatable=0;points=[[0,0.5],[1,0.5]];portConstraint=eastwest;" vertex="1" parent="1">
          <mxGeometry x="1140" y="-841.75" width="30" height="30" as="geometry" />
        </mxCell>
        <mxCell id="jU_3QIgpvsVhEryn2_ra-68" value="TIENE" style="text;html=1;strokeColor=none;fillColor=none;align=left;verticalAlign=top;spacingLeft=4;spacingRight=4;whiteSpace=wrap;overflow=hidden;rotatable=0;points=[[0,0.5],[1,0.5]];portConstraint=eastwest;" vertex="1" parent="1">
          <mxGeometry x="1075" y="-815.25" width="45" height="31.25" as="geometry" />
        </mxCell>
        <mxCell id="jU_3QIgpvsVhEryn2_ra-69" value="1:N" style="text;html=1;strokeColor=none;fillColor=none;align=left;verticalAlign=top;spacingLeft=4;spacingRight=4;whiteSpace=wrap;overflow=hidden;rotatable=0;points=[[0,0.5],[1,0.5]];portConstraint=eastwest;" vertex="1" parent="1">
          <mxGeometry x="1085" y="-878.25" width="35" height="30" as="geometry" />
        </mxCell>
        <mxCell id="jU_3QIgpvsVhEryn2_ra-72" style="edgeStyle=orthogonalEdgeStyle;rounded=0;orthogonalLoop=1;jettySize=auto;html=1;exitX=1;exitY=0.5;exitDx=0;exitDy=0;entryX=0;entryY=0.5;entryDx=0;entryDy=0;" edge="1" parent="1" source="78961159f06e98e8-37" target="jU_3QIgpvsVhEryn2_ra-65">
          <mxGeometry relative="1" as="geometry" />
        </mxCell>
        <mxCell id="jU_3QIgpvsVhEryn2_ra-75" style="edgeStyle=orthogonalEdgeStyle;rounded=0;orthogonalLoop=1;jettySize=auto;html=1;entryX=1;entryY=0.5;entryDx=0;entryDy=0;" edge="1" parent="1" source="jU_3QIgpvsVhEryn2_ra-54" target="nlcIiToaz_BaQZgEdk1q-97">
          <mxGeometry relative="1" as="geometry">
            <Array as="points">
              <mxPoint x="1200" y="-860" />
              <mxPoint x="1200" y="-672" />
            </Array>
          </mxGeometry>
        </mxCell>
        <mxCell id="jU_3QIgpvsVhEryn2_ra-86" style="edgeStyle=orthogonalEdgeStyle;rounded=0;orthogonalLoop=1;jettySize=auto;html=1;entryX=0.996;entryY=0.706;entryDx=0;entryDy=0;entryPerimeter=0;" edge="1" parent="1" source="jU_3QIgpvsVhEryn2_ra-26" target="jU_3QIgpvsVhEryn2_ra-84">
          <mxGeometry relative="1" as="geometry" />
        </mxCell>
        <mxCell id="jU_3QIgpvsVhEryn2_ra-88" value="0:N" style="text;html=1;strokeColor=none;fillColor=none;align=left;verticalAlign=top;spacingLeft=4;spacingRight=4;whiteSpace=wrap;overflow=hidden;rotatable=0;points=[[0,0.5],[1,0.5]];portConstraint=eastwest;" vertex="1" parent="1">
          <mxGeometry x="1910" y="-908.25" width="30" height="30" as="geometry" />
        </mxCell>
        <mxCell id="jU_3QIgpvsVhEryn2_ra-89" value="&lt;span style=&quot;color: rgba(0, 0, 0, 0); font-family: monospace; font-size: 0px; text-align: start; text-wrap: nowrap;&quot;&gt;%3CmxGraphModel%3E%3Croot%3E%3CmxCell%20id%3D%220%22%2F%3E%3CmxCell%20id%3D%221%22%20parent%3D%220%22%2F%3E%3CmxCell%20id%3D%222%22%20value%3D%221%3AN%22%20style%3D%22text%3Bhtml%3D1%3BstrokeColor%3Dnone%3BfillColor%3Dnone%3Balign%3Dleft%3BverticalAlign%3Dtop%3BspacingLeft%3D4%3BspacingRight%3D4%3BwhiteSpace%3Dwrap%3Boverflow%3Dhidden%3Brotatable%3D0%3Bpoints%3D%5B%5B0%2C0.5%5D%2C%5B1%2C0.5%5D%5D%3BportConstraint%3Deastwest%3B%22%20vertex%3D%221%22%20parent%3D%221%22%3E%3CmxGeometry%20x%3D%22260%22%20y%3D%22156.5%22%20width%3D%2230%22%20height%3D%2230%22%20as%3D%22geometry%22%2F%3E%3C%2FmxCell%3E%3C%2Froot%3E%3C%2FmxGraphModel%3E&lt;/span&gt;" style="rhombus;whiteSpace=wrap;html=1;" vertex="1" parent="1">
          <mxGeometry x="1600" y="-659.25" width="100" height="80" as="geometry" />
        </mxCell>
        <mxCell id="jU_3QIgpvsVhEryn2_ra-90" value="0:N" style="text;html=1;strokeColor=none;fillColor=none;align=left;verticalAlign=top;spacingLeft=4;spacingRight=4;whiteSpace=wrap;overflow=hidden;rotatable=0;points=[[0,0.5],[1,0.5]];portConstraint=eastwest;" vertex="1" parent="1">
          <mxGeometry x="1530" y="-650" width="30" height="30" as="geometry" />
        </mxCell>
        <mxCell id="jU_3QIgpvsVhEryn2_ra-91" value="1:N" style="text;html=1;strokeColor=none;fillColor=none;align=left;verticalAlign=top;spacingLeft=4;spacingRight=4;whiteSpace=wrap;overflow=hidden;rotatable=0;points=[[0,0.5],[1,0.5]];portConstraint=eastwest;" vertex="1" parent="1">
          <mxGeometry x="1710" y="-650" width="30" height="30" as="geometry" />
        </mxCell>
        <mxCell id="jU_3QIgpvsVhEryn2_ra-92" value="REALIZA" style="text;html=1;strokeColor=none;fillColor=none;align=left;verticalAlign=top;spacingLeft=4;spacingRight=4;whiteSpace=wrap;overflow=hidden;rotatable=0;points=[[0,0.5],[1,0.5]];portConstraint=eastwest;" vertex="1" parent="1">
          <mxGeometry x="1622.5" y="-631.37" width="65" height="24.25" as="geometry" />
        </mxCell>
        <mxCell id="jU_3QIgpvsVhEryn2_ra-93" value="N:M" style="text;html=1;strokeColor=none;fillColor=none;align=left;verticalAlign=top;spacingLeft=4;spacingRight=4;whiteSpace=wrap;overflow=hidden;rotatable=0;points=[[0,0.5],[1,0.5]];portConstraint=eastwest;" vertex="1" parent="1">
          <mxGeometry x="1587.5" y="-689.25" width="35" height="30" as="geometry" />
        </mxCell>
        <mxCell id="jU_3QIgpvsVhEryn2_ra-94" style="edgeStyle=orthogonalEdgeStyle;rounded=0;orthogonalLoop=1;jettySize=auto;html=1;entryX=0.013;entryY=0.735;entryDx=0;entryDy=0;entryPerimeter=0;" edge="1" parent="1" source="jU_3QIgpvsVhEryn2_ra-53" target="jU_3QIgpvsVhEryn2_ra-84">
          <mxGeometry relative="1" as="geometry" />
        </mxCell>
        <mxCell id="jU_3QIgpvsVhEryn2_ra-96" style="edgeStyle=orthogonalEdgeStyle;rounded=0;orthogonalLoop=1;jettySize=auto;html=1;entryX=0;entryY=0.5;entryDx=0;entryDy=0;" edge="1" parent="1" source="jU_3QIgpvsVhEryn2_ra-54" target="jU_3QIgpvsVhEryn2_ra-89">
          <mxGeometry relative="1" as="geometry" />
        </mxCell>
        <mxCell id="jU_3QIgpvsVhEryn2_ra-98" style="edgeStyle=orthogonalEdgeStyle;rounded=0;orthogonalLoop=1;jettySize=auto;html=1;entryX=0;entryY=0.5;entryDx=0;entryDy=0;" edge="1" parent="1" source="jU_3QIgpvsVhEryn2_ra-35" target="jU_3QIgpvsVhEryn2_ra-3">
          <mxGeometry relative="1" as="geometry" />
        </mxCell>
        <mxCell id="jU_3QIgpvsVhEryn2_ra-100" style="edgeStyle=orthogonalEdgeStyle;rounded=0;orthogonalLoop=1;jettySize=auto;html=1;entryX=1;entryY=0.5;entryDx=0;entryDy=0;" edge="1" parent="1" source="jU_3QIgpvsVhEryn2_ra-54" target="jU_3QIgpvsVhEryn2_ra-65">
          <mxGeometry relative="1" as="geometry" />
        </mxCell>
        <mxCell id="jU_3QIgpvsVhEryn2_ra-101" style="edgeStyle=orthogonalEdgeStyle;rounded=0;orthogonalLoop=1;jettySize=auto;html=1;entryX=0.4;entryY=0.004;entryDx=0;entryDy=0;entryPerimeter=0;" edge="1" parent="1" source="nlcIiToaz_BaQZgEdk1q-126" target="nlcIiToaz_BaQZgEdk1q-112">
          <mxGeometry relative="1" as="geometry" />
        </mxCell>
        <mxCell id="jU_3QIgpvsVhEryn2_ra-104" value="&lt;span style=&quot;color: rgba(0, 0, 0, 0); font-family: monospace; font-size: 0px; text-align: start; text-wrap: nowrap;&quot;&gt;%3CmxGraphModel%3E%3Croot%3E%3CmxCell%20id%3D%220%22%2F%3E%3CmxCell%20id%3D%221%22%20parent%3D%220%22%2F%3E%3CmxCell%20id%3D%222%22%20value%3D%221%3AN%22%20style%3D%22text%3Bhtml%3D1%3BstrokeColor%3Dnone%3BfillColor%3Dnone%3Balign%3Dleft%3BverticalAlign%3Dtop%3BspacingLeft%3D4%3BspacingRight%3D4%3BwhiteSpace%3Dwrap%3Boverflow%3Dhidden%3Brotatable%3D0%3Bpoints%3D%5B%5B0%2C0.5%5D%2C%5B1%2C0.5%5D%5D%3BportConstraint%3Deastwest%3B%22%20vertex%3D%221%22%20parent%3D%221%22%3E%3CmxGeometry%20x%3D%22260%22%20y%3D%22156.5%22%20width%3D%2230%22%20height%3D%2230%22%20as%3D%22geometry%22%2F%3E%3C%2FmxCell%3E%3C%2Froot%3E%3C%2FmxGraphModel%3E&lt;/span&gt;" style="rhombus;whiteSpace=wrap;html=1;" vertex="1" parent="1">
          <mxGeometry x="2055" y="-643.87" width="80" height="80" as="geometry" />
        </mxCell>
        <mxCell id="jU_3QIgpvsVhEryn2_ra-105" value="1:N" style="text;html=1;strokeColor=none;fillColor=none;align=left;verticalAlign=top;spacingLeft=4;spacingRight=4;whiteSpace=wrap;overflow=hidden;rotatable=0;points=[[0,0.5],[1,0.5]];portConstraint=eastwest;" vertex="1" parent="1">
          <mxGeometry x="2110" y="-520" width="30" height="30" as="geometry" />
        </mxCell>
        <mxCell id="jU_3QIgpvsVhEryn2_ra-106" value="0:1" style="text;html=1;strokeColor=none;fillColor=none;align=left;verticalAlign=top;spacingLeft=4;spacingRight=4;whiteSpace=wrap;overflow=hidden;rotatable=0;points=[[0,0.5],[1,0.5]];portConstraint=eastwest;" vertex="1" parent="1">
          <mxGeometry x="2110" y="-710" width="30" height="30" as="geometry" />
        </mxCell>
        <mxCell id="jU_3QIgpvsVhEryn2_ra-107" value="TIENE" style="text;html=1;strokeColor=none;fillColor=none;align=left;verticalAlign=top;spacingLeft=4;spacingRight=4;whiteSpace=wrap;overflow=hidden;rotatable=0;points=[[0,0.5],[1,0.5]];portConstraint=eastwest;" vertex="1" parent="1">
          <mxGeometry x="2070" y="-616" width="50" height="24.25" as="geometry" />
        </mxCell>
        <mxCell id="jU_3QIgpvsVhEryn2_ra-108" value="1:N" style="text;html=1;strokeColor=none;fillColor=none;align=left;verticalAlign=top;spacingLeft=4;spacingRight=4;whiteSpace=wrap;overflow=hidden;rotatable=0;points=[[0,0.5],[1,0.5]];portConstraint=eastwest;" vertex="1" parent="1">
          <mxGeometry x="2140" y="-637.12" width="35" height="30" as="geometry" />
        </mxCell>
        <mxCell id="jU_3QIgpvsVhEryn2_ra-133" style="edgeStyle=orthogonalEdgeStyle;rounded=0;orthogonalLoop=1;jettySize=auto;html=1;entryX=0;entryY=0.5;entryDx=0;entryDy=0;" edge="1" parent="1" source="jU_3QIgpvsVhEryn2_ra-117" target="jU_3QIgpvsVhEryn2_ra-126">
          <mxGeometry relative="1" as="geometry" />
        </mxCell>
        <mxCell id="jU_3QIgpvsVhEryn2_ra-117" value="USER_ENCUESTA" style="swimlane;html=1;fontStyle=1;align=center;verticalAlign=top;childLayout=stackLayout;horizontal=1;startSize=26;horizontalStack=0;resizeParent=1;resizeLast=0;collapsible=1;marginBottom=0;swimlaneFillColor=#ffffff;rounded=0;shadow=0;comic=0;labelBackgroundColor=none;strokeWidth=1;fillColor=none;fontFamily=Verdana;fontSize=12" vertex="1" parent="1">
          <mxGeometry x="449.9999999999999" y="-570" width="230" height="290" as="geometry">
            <mxRectangle x="430" y="83" width="100" height="30" as="alternateBounds" />
          </mxGeometry>
        </mxCell>
        <mxCell id="jU_3QIgpvsVhEryn2_ra-118" value="Id_UsuEncuesta char PK" style="text;html=1;strokeColor=none;fillColor=none;align=left;verticalAlign=top;spacingLeft=4;spacingRight=4;whiteSpace=wrap;overflow=hidden;rotatable=0;points=[[0,0.5],[1,0.5]];portConstraint=eastwest;" vertex="1" parent="jU_3QIgpvsVhEryn2_ra-117">
          <mxGeometry y="26" width="230" height="30" as="geometry" />
        </mxCell>
        <mxCell id="jU_3QIgpvsVhEryn2_ra-119" value="Email varchar" style="text;html=1;strokeColor=none;fillColor=none;align=left;verticalAlign=top;spacingLeft=4;spacingRight=4;whiteSpace=wrap;overflow=hidden;rotatable=0;points=[[0,0.5],[1,0.5]];portConstraint=eastwest;" vertex="1" parent="jU_3QIgpvsVhEryn2_ra-117">
          <mxGeometry y="56" width="230" height="18" as="geometry" />
        </mxCell>
        <mxCell id="jU_3QIgpvsVhEryn2_ra-120" value="+ method(type): type" style="text;html=1;strokeColor=none;fillColor=none;align=left;verticalAlign=top;spacingLeft=4;spacingRight=4;whiteSpace=wrap;overflow=hidden;rotatable=0;points=[[0,0.5],[1,0.5]];portConstraint=eastwest;" vertex="1" parent="jU_3QIgpvsVhEryn2_ra-117">
          <mxGeometry y="74" width="230" height="4" as="geometry" />
        </mxCell>
        <mxCell id="jU_3QIgpvsVhEryn2_ra-121" value="Id_encuesta" style="text;html=1;strokeColor=none;fillColor=none;align=left;verticalAlign=top;spacingLeft=4;spacingRight=4;whiteSpace=wrap;overflow=hidden;rotatable=0;points=[[0,0.5],[1,0.5]];portConstraint=eastwest;" vertex="1" parent="jU_3QIgpvsVhEryn2_ra-117">
          <mxGeometry y="78" width="230" height="22" as="geometry" />
        </mxCell>
        <mxCell id="jU_3QIgpvsVhEryn2_ra-122" value="" style="line;html=1;strokeWidth=1;fillColor=none;align=left;verticalAlign=middle;spacingTop=-1;spacingLeft=3;spacingRight=3;rotatable=0;labelPosition=right;points=[];portConstraint=eastwest;" vertex="1" parent="jU_3QIgpvsVhEryn2_ra-117">
          <mxGeometry y="100" width="230" height="32" as="geometry" />
        </mxCell>
        <mxCell id="jU_3QIgpvsVhEryn2_ra-123" value="FK_USERENCUESTA FOREIGN KEY&amp;nbsp;&lt;div&gt;(Id_UsuEncuesta) REFERENCES USUARIO&lt;/div&gt;" style="text;html=1;strokeColor=none;fillColor=none;align=left;verticalAlign=top;spacingLeft=4;spacingRight=4;whiteSpace=wrap;overflow=hidden;rotatable=0;points=[[0,0.5],[1,0.5]];portConstraint=eastwest;" vertex="1" parent="jU_3QIgpvsVhEryn2_ra-117">
          <mxGeometry y="132" width="230" height="48" as="geometry" />
        </mxCell>
        <mxCell id="jU_3QIgpvsVhEryn2_ra-124" value="FK_EncuestaUser FOREIGN KEY (Email)&lt;div&gt;REFERENCES ENCUESTA&lt;/div&gt;" style="text;html=1;strokeColor=none;fillColor=none;align=left;verticalAlign=top;spacingLeft=4;spacingRight=4;whiteSpace=wrap;overflow=hidden;rotatable=0;points=[[0,0.5],[1,0.5]];portConstraint=eastwest;" vertex="1" parent="jU_3QIgpvsVhEryn2_ra-117">
          <mxGeometry y="180" width="230" height="34" as="geometry" />
        </mxCell>
        <mxCell id="jU_3QIgpvsVhEryn2_ra-126" value="&lt;span style=&quot;color: rgba(0, 0, 0, 0); font-family: monospace; font-size: 0px; text-align: start; text-wrap: nowrap;&quot;&gt;%3CmxGraphModel%3E%3Croot%3E%3CmxCell%20id%3D%220%22%2F%3E%3CmxCell%20id%3D%221%22%20parent%3D%220%22%2F%3E%3CmxCell%20id%3D%222%22%20value%3D%221%3AN%22%20style%3D%22text%3Bhtml%3D1%3BstrokeColor%3Dnone%3BfillColor%3Dnone%3Balign%3Dleft%3BverticalAlign%3Dtop%3BspacingLeft%3D4%3BspacingRight%3D4%3BwhiteSpace%3Dwrap%3Boverflow%3Dhidden%3Brotatable%3D0%3Bpoints%3D%5B%5B0%2C0.5%5D%2C%5B1%2C0.5%5D%5D%3BportConstraint%3Deastwest%3B%22%20vertex%3D%221%22%20parent%3D%221%22%3E%3CmxGeometry%20x%3D%22260%22%20y%3D%22156.5%22%20width%3D%2230%22%20height%3D%2230%22%20as%3D%22geometry%22%2F%3E%3C%2FmxCell%3E%3C%2Froot%3E%3C%2FmxGraphModel%3E&lt;/span&gt;" style="rhombus;whiteSpace=wrap;html=1;" vertex="1" parent="1">
          <mxGeometry x="850" y="-470" width="100" height="80" as="geometry" />
        </mxCell>
        <mxCell id="jU_3QIgpvsVhEryn2_ra-127" value="0:N" style="text;html=1;strokeColor=none;fillColor=none;align=left;verticalAlign=top;spacingLeft=4;spacingRight=4;whiteSpace=wrap;overflow=hidden;rotatable=0;points=[[0,0.5],[1,0.5]];portConstraint=eastwest;" vertex="1" parent="1">
          <mxGeometry x="910" y="-130" width="30" height="30" as="geometry" />
        </mxCell>
        <mxCell id="jU_3QIgpvsVhEryn2_ra-128" value="1:N" style="text;html=1;strokeColor=none;fillColor=none;align=left;verticalAlign=top;spacingLeft=4;spacingRight=4;whiteSpace=wrap;overflow=hidden;rotatable=0;points=[[0,0.5],[1,0.5]];portConstraint=eastwest;" vertex="1" parent="1">
          <mxGeometry x="920" y="-620" width="30" height="30" as="geometry" />
        </mxCell>
        <mxCell id="jU_3QIgpvsVhEryn2_ra-129" value="REALIZA" style="text;html=1;strokeColor=none;fillColor=none;align=left;verticalAlign=top;spacingLeft=4;spacingRight=4;whiteSpace=wrap;overflow=hidden;rotatable=0;points=[[0,0.5],[1,0.5]];portConstraint=eastwest;" vertex="1" parent="1">
          <mxGeometry x="872.5" y="-442.12" width="65" height="24.25" as="geometry" />
        </mxCell>
        <mxCell id="jU_3QIgpvsVhEryn2_ra-130" value="N:M" style="text;html=1;strokeColor=none;fillColor=none;align=left;verticalAlign=top;spacingLeft=4;spacingRight=4;whiteSpace=wrap;overflow=hidden;rotatable=0;points=[[0,0.5],[1,0.5]];portConstraint=eastwest;" vertex="1" parent="1">
          <mxGeometry x="837.5" y="-500" width="35" height="30" as="geometry" />
        </mxCell>
        <mxCell id="jU_3QIgpvsVhEryn2_ra-134" style="edgeStyle=orthogonalEdgeStyle;rounded=0;orthogonalLoop=1;jettySize=auto;html=1;entryX=0;entryY=0.5;entryDx=0;entryDy=0;" edge="1" parent="1" source="jU_3QIgpvsVhEryn2_ra-124" target="78961159f06e98e8-31">
          <mxGeometry relative="1" as="geometry" />
        </mxCell>
        <mxCell id="jU_3QIgpvsVhEryn2_ra-135" style="edgeStyle=orthogonalEdgeStyle;rounded=0;orthogonalLoop=1;jettySize=auto;html=1;entryX=-0.014;entryY=0.946;entryDx=0;entryDy=0;entryPerimeter=0;" edge="1" parent="1" source="jU_3QIgpvsVhEryn2_ra-123" target="nlcIiToaz_BaQZgEdk1q-138">
          <mxGeometry relative="1" as="geometry" />
        </mxCell>
        <mxCell id="jU_3QIgpvsVhEryn2_ra-154" style="edgeStyle=orthogonalEdgeStyle;rounded=0;orthogonalLoop=1;jettySize=auto;html=1;" edge="1" parent="1" source="jU_3QIgpvsVhEryn2_ra-136">
          <mxGeometry relative="1" as="geometry">
            <mxPoint x="840" y="660" as="targetPoint" />
          </mxGeometry>
        </mxCell>
        <mxCell id="jU_3QIgpvsVhEryn2_ra-136" value="Pregunta" style="swimlane;html=1;fontStyle=1;align=center;verticalAlign=top;childLayout=stackLayout;horizontal=1;startSize=26;horizontalStack=0;resizeParent=1;resizeLast=0;collapsible=1;marginBottom=0;swimlaneFillColor=#ffffff;rounded=0;shadow=0;comic=0;labelBackgroundColor=none;strokeWidth=1;fillColor=none;fontFamily=Verdana;fontSize=12" vertex="1" parent="1">
          <mxGeometry x="620" y="760" width="430" height="260" as="geometry">
            <mxRectangle x="430" y="83" width="100" height="30" as="alternateBounds" />
          </mxGeometry>
        </mxCell>
        <mxCell id="jU_3QIgpvsVhEryn2_ra-137" value="Id_pregunta: char PK" style="text;html=1;strokeColor=none;fillColor=none;align=left;verticalAlign=top;spacingLeft=4;spacingRight=4;whiteSpace=wrap;overflow=hidden;rotatable=0;points=[[0,0.5],[1,0.5]];portConstraint=eastwest;" vertex="1" parent="jU_3QIgpvsVhEryn2_ra-136">
          <mxGeometry y="26" width="430" height="26" as="geometry" />
        </mxCell>
        <mxCell id="jU_3QIgpvsVhEryn2_ra-138" value="pregunta_text: text" style="text;html=1;strokeColor=none;fillColor=none;align=left;verticalAlign=top;spacingLeft=4;spacingRight=4;whiteSpace=wrap;overflow=hidden;rotatable=0;points=[[0,0.5],[1,0.5]];portConstraint=eastwest;" vertex="1" parent="jU_3QIgpvsVhEryn2_ra-136">
          <mxGeometry y="52" width="430" height="26" as="geometry" />
        </mxCell>
        <mxCell id="jU_3QIgpvsVhEryn2_ra-140" value="Fecha_creacion: date" style="text;html=1;strokeColor=none;fillColor=none;align=left;verticalAlign=top;spacingLeft=4;spacingRight=4;whiteSpace=wrap;overflow=hidden;rotatable=0;points=[[0,0.5],[1,0.5]];portConstraint=eastwest;" vertex="1" parent="jU_3QIgpvsVhEryn2_ra-136">
          <mxGeometry y="78" width="430" height="36" as="geometry" />
        </mxCell>
        <mxCell id="jU_3QIgpvsVhEryn2_ra-141" value="+ method(type): type" style="text;html=1;strokeColor=none;fillColor=none;align=left;verticalAlign=top;spacingLeft=4;spacingRight=4;whiteSpace=wrap;overflow=hidden;rotatable=0;points=[[0,0.5],[1,0.5]];portConstraint=eastwest;" vertex="1" parent="jU_3QIgpvsVhEryn2_ra-136">
          <mxGeometry y="114" width="430" height="4" as="geometry" />
        </mxCell>
        <mxCell id="jU_3QIgpvsVhEryn2_ra-142" value="" style="line;html=1;strokeWidth=1;fillColor=none;align=left;verticalAlign=middle;spacingTop=-1;spacingLeft=3;spacingRight=3;rotatable=0;labelPosition=right;points=[];portConstraint=eastwest;" vertex="1" parent="jU_3QIgpvsVhEryn2_ra-136">
          <mxGeometry y="118" width="430" height="8" as="geometry" />
        </mxCell>
        <mxCell id="jU_3QIgpvsVhEryn2_ra-144" value="FK_pregunta Id_encuesta References Encuesta" style="text;html=1;strokeColor=none;fillColor=none;align=left;verticalAlign=top;spacingLeft=4;spacingRight=4;whiteSpace=wrap;overflow=hidden;rotatable=0;points=[[0,0.5],[1,0.5]];portConstraint=eastwest;" vertex="1" parent="jU_3QIgpvsVhEryn2_ra-136">
          <mxGeometry y="126" width="430" height="40" as="geometry" />
        </mxCell>
        <mxCell id="jU_3QIgpvsVhEryn2_ra-145" style="edgeStyle=orthogonalEdgeStyle;rounded=0;orthogonalLoop=1;jettySize=auto;html=1;entryX=1;entryY=0.5;entryDx=0;entryDy=0;" edge="1" parent="1" source="nlcIiToaz_BaQZgEdk1q-138" target="jU_3QIgpvsVhEryn2_ra-144">
          <mxGeometry relative="1" as="geometry" />
        </mxCell>
        <mxCell id="jU_3QIgpvsVhEryn2_ra-146" value="&lt;span style=&quot;color: rgba(0, 0, 0, 0); font-family: monospace; font-size: 0px; text-align: start; text-wrap: nowrap;&quot;&gt;%3CmxGraphModel%3E%3Croot%3E%3CmxCell%20id%3D%220%22%2F%3E%3CmxCell%20id%3D%221%22%20parent%3D%220%22%2F%3E%3CmxCell%20id%3D%222%22%20value%3D%221%3AN%22%20style%3D%22text%3Bhtml%3D1%3BstrokeColor%3Dnone%3BfillColor%3Dnone%3Balign%3Dleft%3BverticalAlign%3Dtop%3BspacingLeft%3D4%3BspacingRight%3D4%3BwhiteSpace%3Dwrap%3Boverflow%3Dhidden%3Brotatable%3D0%3Bpoints%3D%5B%5B0%2C0.5%5D%2C%5B1%2C0.5%5D%5D%3BportConstraint%3Deastwest%3B%22%20vertex%3D%221%22%20parent%3D%221%22%3E%3CmxGeometry%20x%3D%22260%22%20y%3D%22156.5%22%20width%3D%2230%22%20height%3D%2230%22%20as%3D%22geometry%22%2F%3E%3C%2FmxCell%3E%3C%2Froot%3E%3C%2FmxGraphModel%3E&lt;/span&gt;" style="rhombus;whiteSpace=wrap;html=1;" vertex="1" parent="1">
          <mxGeometry x="797.5" y="570.75" width="80" height="80" as="geometry" />
        </mxCell>
        <mxCell id="jU_3QIgpvsVhEryn2_ra-147" value="0:1" style="text;html=1;strokeColor=none;fillColor=none;align=left;verticalAlign=top;spacingLeft=4;spacingRight=4;whiteSpace=wrap;overflow=hidden;rotatable=0;points=[[0,0.5],[1,0.5]];portConstraint=eastwest;" vertex="1" parent="1">
          <mxGeometry x="877.5" y="720" width="30" height="30" as="geometry" />
        </mxCell>
        <mxCell id="jU_3QIgpvsVhEryn2_ra-148" value="0:N&amp;nbsp;" style="text;html=1;strokeColor=none;fillColor=none;align=left;verticalAlign=top;spacingLeft=4;spacingRight=4;whiteSpace=wrap;overflow=hidden;rotatable=0;points=[[0,0.5],[1,0.5]];portConstraint=eastwest;" vertex="1" parent="1">
          <mxGeometry x="862.5" y="450" width="30" height="30" as="geometry" />
        </mxCell>
        <mxCell id="jU_3QIgpvsVhEryn2_ra-149" value="TIENE" style="text;html=1;strokeColor=none;fillColor=none;align=left;verticalAlign=top;spacingLeft=4;spacingRight=4;whiteSpace=wrap;overflow=hidden;rotatable=0;points=[[0,0.5],[1,0.5]];portConstraint=eastwest;" vertex="1" parent="1">
          <mxGeometry x="812.5" y="598.6199999999999" width="50" height="24.25" as="geometry" />
        </mxCell>
        <mxCell id="jU_3QIgpvsVhEryn2_ra-150" value="1:N" style="text;html=1;strokeColor=none;fillColor=none;align=left;verticalAlign=top;spacingLeft=4;spacingRight=4;whiteSpace=wrap;overflow=hidden;rotatable=0;points=[[0,0.5],[1,0.5]];portConstraint=eastwest;" vertex="1" parent="1">
          <mxGeometry x="887.5" y="592.87" width="35" height="30" as="geometry" />
        </mxCell>
        <mxCell id="jU_3QIgpvsVhEryn2_ra-156" value="RESPUESTA" style="swimlane;html=1;fontStyle=1;align=center;verticalAlign=top;childLayout=stackLayout;horizontal=1;startSize=26;horizontalStack=0;resizeParent=1;resizeLast=0;collapsible=1;marginBottom=0;swimlaneFillColor=#ffffff;rounded=0;shadow=0;comic=0;labelBackgroundColor=none;strokeWidth=1;fillColor=none;fontFamily=Verdana;fontSize=12" vertex="1" parent="1">
          <mxGeometry x="-230" y="-1000" width="430" height="290" as="geometry">
            <mxRectangle x="430" y="83" width="100" height="30" as="alternateBounds" />
          </mxGeometry>
        </mxCell>
        <mxCell id="jU_3QIgpvsVhEryn2_ra-159" value="+ method(type): type" style="text;html=1;strokeColor=none;fillColor=none;align=left;verticalAlign=top;spacingLeft=4;spacingRight=4;whiteSpace=wrap;overflow=hidden;rotatable=0;points=[[0,0.5],[1,0.5]];portConstraint=eastwest;" vertex="1" parent="jU_3QIgpvsVhEryn2_ra-156">
          <mxGeometry y="26" width="430" height="4" as="geometry" />
        </mxCell>
        <mxCell id="jU_3QIgpvsVhEryn2_ra-157" value="Id_respuesta char PK" style="text;html=1;strokeColor=none;fillColor=none;align=left;verticalAlign=top;spacingLeft=4;spacingRight=4;whiteSpace=wrap;overflow=hidden;rotatable=0;points=[[0,0.5],[1,0.5]];portConstraint=eastwest;" vertex="1" parent="jU_3QIgpvsVhEryn2_ra-156">
          <mxGeometry y="30" width="430" height="30" as="geometry" />
        </mxCell>
        <mxCell id="jU_3QIgpvsVhEryn2_ra-166" value="Id_usuEncuesta char" style="text;html=1;strokeColor=none;fillColor=none;align=left;verticalAlign=top;spacingLeft=4;spacingRight=4;whiteSpace=wrap;overflow=hidden;rotatable=0;points=[[0,0.5],[1,0.5]];portConstraint=eastwest;" vertex="1" parent="jU_3QIgpvsVhEryn2_ra-156">
          <mxGeometry y="60" width="430" height="30" as="geometry" />
        </mxCell>
        <mxCell id="jU_3QIgpvsVhEryn2_ra-167" value="resp_text text" style="text;html=1;strokeColor=none;fillColor=none;align=left;verticalAlign=top;spacingLeft=4;spacingRight=4;whiteSpace=wrap;overflow=hidden;rotatable=0;points=[[0,0.5],[1,0.5]];portConstraint=eastwest;" vertex="1" parent="jU_3QIgpvsVhEryn2_ra-156">
          <mxGeometry y="90" width="430" height="30" as="geometry" />
        </mxCell>
        <mxCell id="jU_3QIgpvsVhEryn2_ra-168" value="Fecha_creacion:Date" style="text;html=1;strokeColor=none;fillColor=none;align=left;verticalAlign=top;spacingLeft=4;spacingRight=4;whiteSpace=wrap;overflow=hidden;rotatable=0;points=[[0,0.5],[1,0.5]];portConstraint=eastwest;" vertex="1" parent="jU_3QIgpvsVhEryn2_ra-156">
          <mxGeometry y="120" width="430" height="20" as="geometry" />
        </mxCell>
        <mxCell id="jU_3QIgpvsVhEryn2_ra-189" value="Id_pregunta char" style="text;html=1;strokeColor=none;fillColor=none;align=left;verticalAlign=top;spacingLeft=4;spacingRight=4;whiteSpace=wrap;overflow=hidden;rotatable=0;points=[[0,0.5],[1,0.5]];portConstraint=eastwest;" vertex="1" parent="jU_3QIgpvsVhEryn2_ra-156">
          <mxGeometry y="140" width="430" height="26" as="geometry" />
        </mxCell>
        <mxCell id="jU_3QIgpvsVhEryn2_ra-190" value="" style="endArrow=none;html=1;rounded=0;" edge="1" parent="jU_3QIgpvsVhEryn2_ra-156">
          <mxGeometry width="50" height="50" relative="1" as="geometry">
            <mxPoint x="-2.7099999999999995" y="172" as="sourcePoint" />
            <mxPoint x="280" y="172" as="targetPoint" />
          </mxGeometry>
        </mxCell>
        <mxCell id="jU_3QIgpvsVhEryn2_ra-195" value="&lt;div style=&quot;&quot;&gt;&lt;span style=&quot;background-color: initial;&quot;&gt;FK_RESUSUENC Id_usuEncuesta REFERENCES USER_ENCUESTA&lt;/span&gt;&lt;/div&gt;" style="text;html=1;align=left;verticalAlign=middle;whiteSpace=wrap;rounded=0;" vertex="1" parent="jU_3QIgpvsVhEryn2_ra-156">
          <mxGeometry y="166" width="430" height="30" as="geometry" />
        </mxCell>
        <mxCell id="jU_3QIgpvsVhEryn2_ra-196" value="&lt;div style=&quot;&quot;&gt;FK_RESPRE Id_pregunta REFERENCES PREGUNTA&lt;/div&gt;" style="text;html=1;align=left;verticalAlign=middle;whiteSpace=wrap;rounded=0;" vertex="1" parent="jU_3QIgpvsVhEryn2_ra-156">
          <mxGeometry y="196" width="430" height="30" as="geometry" />
        </mxCell>
        <mxCell id="jU_3QIgpvsVhEryn2_ra-188" style="edgeStyle=orthogonalEdgeStyle;rounded=0;orthogonalLoop=1;jettySize=auto;html=1;" edge="1" parent="1" source="jU_3QIgpvsVhEryn2_ra-181">
          <mxGeometry relative="1" as="geometry">
            <mxPoint x="440" y="-450" as="targetPoint" />
          </mxGeometry>
        </mxCell>
        <mxCell id="jU_3QIgpvsVhEryn2_ra-181" value="&lt;span style=&quot;color: rgba(0, 0, 0, 0); font-family: monospace; font-size: 0px; text-align: start; text-wrap: nowrap;&quot;&gt;%3CmxGraphModel%3E%3Croot%3E%3CmxCell%20id%3D%220%22%2F%3E%3CmxCell%20id%3D%221%22%20parent%3D%220%22%2F%3E%3CmxCell%20id%3D%222%22%20value%3D%221%3AN%22%20style%3D%22text%3Bhtml%3D1%3BstrokeColor%3Dnone%3BfillColor%3Dnone%3Balign%3Dleft%3BverticalAlign%3Dtop%3BspacingLeft%3D4%3BspacingRight%3D4%3BwhiteSpace%3Dwrap%3Boverflow%3Dhidden%3Brotatable%3D0%3Bpoints%3D%5B%5B0%2C0.5%5D%2C%5B1%2C0.5%5D%5D%3BportConstraint%3Deastwest%3B%22%20vertex%3D%221%22%20parent%3D%221%22%3E%3CmxGeometry%20x%3D%22260%22%20y%3D%22156.5%22%20width%3D%2230%22%20height%3D%2230%22%20as%3D%22geometry%22%2F%3E%3C%2FmxCell%3E%3C%2Froot%3E%3C%2FmxGraphModel%3E&lt;/span&gt;" style="rhombus;whiteSpace=wrap;html=1;" vertex="1" parent="1">
          <mxGeometry x="-105.14" y="-499.25" width="130" height="119.25" as="geometry" />
        </mxCell>
        <mxCell id="jU_3QIgpvsVhEryn2_ra-182" value="1:N" style="text;html=1;strokeColor=none;fillColor=none;align=left;verticalAlign=top;spacingLeft=4;spacingRight=4;whiteSpace=wrap;overflow=hidden;rotatable=0;points=[[0,0.5],[1,0.5]];portConstraint=eastwest;" vertex="1" parent="1">
          <mxGeometry x="-5.139999999999986" y="-529.25" width="30" height="30" as="geometry" />
        </mxCell>
        <mxCell id="jU_3QIgpvsVhEryn2_ra-183" value="0:N&amp;nbsp;" style="text;html=1;strokeColor=none;fillColor=none;align=left;verticalAlign=top;spacingLeft=4;spacingRight=4;whiteSpace=wrap;overflow=hidden;rotatable=0;points=[[0,0.5],[1,0.5]];portConstraint=eastwest;" vertex="1" parent="1">
          <mxGeometry x="390" y="-499.25" width="30" height="30" as="geometry" />
        </mxCell>
        <mxCell id="jU_3QIgpvsVhEryn2_ra-184" value="CONTESTA" style="text;html=1;strokeColor=none;fillColor=none;align=left;verticalAlign=top;spacingLeft=4;spacingRight=4;whiteSpace=wrap;overflow=hidden;rotatable=0;points=[[0,0.5],[1,0.5]];portConstraint=eastwest;" vertex="1" parent="1">
          <mxGeometry x="-80" y="-451.75" width="90" height="24.25" as="geometry" />
        </mxCell>
        <mxCell id="jU_3QIgpvsVhEryn2_ra-185" value="1" style="text;html=1;strokeColor=none;fillColor=none;align=left;verticalAlign=top;spacingLeft=4;spacingRight=4;whiteSpace=wrap;overflow=hidden;rotatable=0;points=[[0,0.5],[1,0.5]];portConstraint=eastwest;" vertex="1" parent="1">
          <mxGeometry x="-90" y="-689.25" width="35" height="30" as="geometry" />
        </mxCell>
        <mxCell id="jU_3QIgpvsVhEryn2_ra-187" style="edgeStyle=orthogonalEdgeStyle;rounded=0;orthogonalLoop=1;jettySize=auto;html=1;entryX=0.49;entryY=0.085;entryDx=0;entryDy=0;entryPerimeter=0;" edge="1" parent="1" source="jU_3QIgpvsVhEryn2_ra-156" target="jU_3QIgpvsVhEryn2_ra-181">
          <mxGeometry relative="1" as="geometry" />
        </mxCell>
        <mxCell id="jU_3QIgpvsVhEryn2_ra-197" style="edgeStyle=orthogonalEdgeStyle;rounded=0;orthogonalLoop=1;jettySize=auto;html=1;entryX=0.004;entryY=0.739;entryDx=0;entryDy=0;entryPerimeter=0;" edge="1" parent="1" source="jU_3QIgpvsVhEryn2_ra-166" target="jU_3QIgpvsVhEryn2_ra-118">
          <mxGeometry relative="1" as="geometry" />
        </mxCell>
        <mxCell id="jU_3QIgpvsVhEryn2_ra-198" style="edgeStyle=orthogonalEdgeStyle;rounded=0;orthogonalLoop=1;jettySize=auto;html=1;entryX=0;entryY=0.5;entryDx=0;entryDy=0;" edge="1" parent="1" source="jU_3QIgpvsVhEryn2_ra-189" target="jU_3QIgpvsVhEryn2_ra-137">
          <mxGeometry relative="1" as="geometry" />
        </mxCell>
      </root>
    </mxGraphModel>
  </diagram>
</mxfile>
